<mxfile host="app.diagrams.net" modified="2023-10-16T13:20:54.678Z" agent="Mozilla/5.0 (Windows NT 10.0; Win64; x64) AppleWebKit/537.36 (KHTML, like Gecko) Chrome/117.0.0.0 Safari/537.36 Edg/117.0.2045.60" etag="ZBpV0CNdr4TQspJzC98Q" version="22.0.4" type="github">
  <diagram id="C5RBs43oDa-KdzZeNtuy" name="Page-1">
    <mxGraphModel dx="746" dy="459" grid="1" gridSize="10" guides="1" tooltips="1" connect="1" arrows="1" fold="1" page="1" pageScale="1" pageWidth="827" pageHeight="1169" math="0" shadow="0">
      <root>
        <mxCell id="WIyWlLk6GJQsqaUBKTNV-0" />
        <mxCell id="WIyWlLk6GJQsqaUBKTNV-1" parent="WIyWlLk6GJQsqaUBKTNV-0" />
        <mxCell id="40vbYMwxmTphR9dt7Mei-2" value="" style="edgeStyle=orthogonalEdgeStyle;rounded=0;orthogonalLoop=1;jettySize=auto;html=1;" edge="1" parent="WIyWlLk6GJQsqaUBKTNV-1" source="40vbYMwxmTphR9dt7Mei-0" target="40vbYMwxmTphR9dt7Mei-1">
          <mxGeometry relative="1" as="geometry" />
        </mxCell>
        <mxCell id="40vbYMwxmTphR9dt7Mei-0" value="MULAI" style="rounded=1;whiteSpace=wrap;html=1;" vertex="1" parent="WIyWlLk6GJQsqaUBKTNV-1">
          <mxGeometry x="360" y="40" width="90" height="40" as="geometry" />
        </mxCell>
        <mxCell id="40vbYMwxmTphR9dt7Mei-4" value="" style="edgeStyle=orthogonalEdgeStyle;rounded=0;orthogonalLoop=1;jettySize=auto;html=1;" edge="1" parent="WIyWlLk6GJQsqaUBKTNV-1" source="40vbYMwxmTphR9dt7Mei-1" target="40vbYMwxmTphR9dt7Mei-3">
          <mxGeometry relative="1" as="geometry" />
        </mxCell>
        <mxCell id="40vbYMwxmTphR9dt7Mei-1" value="MASUKKAN ALAS" style="shape=parallelogram;perimeter=parallelogramPerimeter;whiteSpace=wrap;html=1;fixedSize=1;" vertex="1" parent="WIyWlLk6GJQsqaUBKTNV-1">
          <mxGeometry x="330" y="110" width="150" height="60" as="geometry" />
        </mxCell>
        <mxCell id="40vbYMwxmTphR9dt7Mei-6" value="" style="edgeStyle=orthogonalEdgeStyle;rounded=0;orthogonalLoop=1;jettySize=auto;html=1;" edge="1" parent="WIyWlLk6GJQsqaUBKTNV-1" source="40vbYMwxmTphR9dt7Mei-3" target="40vbYMwxmTphR9dt7Mei-5">
          <mxGeometry relative="1" as="geometry" />
        </mxCell>
        <mxCell id="40vbYMwxmTphR9dt7Mei-3" value="MASUKKAN TINGGI" style="shape=parallelogram;perimeter=parallelogramPerimeter;whiteSpace=wrap;html=1;fixedSize=1;" vertex="1" parent="WIyWlLk6GJQsqaUBKTNV-1">
          <mxGeometry x="310" y="210" width="190" height="60" as="geometry" />
        </mxCell>
        <mxCell id="40vbYMwxmTphR9dt7Mei-8" value="" style="edgeStyle=orthogonalEdgeStyle;rounded=0;orthogonalLoop=1;jettySize=auto;html=1;" edge="1" parent="WIyWlLk6GJQsqaUBKTNV-1" source="40vbYMwxmTphR9dt7Mei-5" target="40vbYMwxmTphR9dt7Mei-7">
          <mxGeometry relative="1" as="geometry" />
        </mxCell>
        <mxCell id="40vbYMwxmTphR9dt7Mei-5" value="LUAS 1/2* (ALAS*TINGGI)" style="rounded=0;whiteSpace=wrap;html=1;" vertex="1" parent="WIyWlLk6GJQsqaUBKTNV-1">
          <mxGeometry x="330" y="320" width="150" height="60" as="geometry" />
        </mxCell>
        <mxCell id="40vbYMwxmTphR9dt7Mei-10" value="" style="edgeStyle=orthogonalEdgeStyle;rounded=0;orthogonalLoop=1;jettySize=auto;html=1;" edge="1" parent="WIyWlLk6GJQsqaUBKTNV-1" source="40vbYMwxmTphR9dt7Mei-7" target="40vbYMwxmTphR9dt7Mei-9">
          <mxGeometry relative="1" as="geometry" />
        </mxCell>
        <mxCell id="40vbYMwxmTphR9dt7Mei-7" value="TAMPIL LUAS SEGITIGA" style="shape=parallelogram;perimeter=parallelogramPerimeter;whiteSpace=wrap;html=1;fixedSize=1;rounded=0;" vertex="1" parent="WIyWlLk6GJQsqaUBKTNV-1">
          <mxGeometry x="320" y="420" width="170" height="60" as="geometry" />
        </mxCell>
        <mxCell id="40vbYMwxmTphR9dt7Mei-9" value="SELESAI" style="rounded=1;whiteSpace=wrap;html=1;" vertex="1" parent="WIyWlLk6GJQsqaUBKTNV-1">
          <mxGeometry x="360" y="524.5" width="90" height="45.5" as="geometry" />
        </mxCell>
      </root>
    </mxGraphModel>
  </diagram>
</mxfile>
